# Rhino

g object_1
v -58.415164947509766 14.777785301208496 -441.5496826171875
v -58.415164947509766 40.905406951904297 -441.5496826171875
v -26.498294830322266 14.777785301208496 -441.5496826171875
v -26.498294830322266 40.905406951904297 -441.5496826171875
v -26.498294830322266 14.777785301208496 -441.5496826171875
v -26.498294830322266 40.905406951904297 -441.5496826171875
v -19.919519424438477 14.777785301208496 -446.0732421875
v -19.919519424438477 40.905406951904297 -446.0732421875
v -19.919519424438477 14.777785301208496 -446.0732421875
v -19.919519424438477 40.905406951904297 -446.0732421875
v -19.638551712036133 14.777785301208496 -458.27655029296875
v -19.638551712036133 40.905406951904297 -458.27655029296875
v -19.638551712036133 14.777785301208496 -458.27655029296875
v -19.638551712036133 40.905406951904297 -458.27655029296875
v -27.301939010620117 14.777785301208496 -459.633544921875
v -27.301939010620117 40.905406951904297 -459.633544921875
v -27.301939010620117 14.777785301208496 -459.633544921875
v -27.301939010620117 40.905406951904297 -459.633544921875
v -27.393850326538086 14.777785301208496 -470.03839111328125
v -27.393850326538086 40.905406951904297 -470.03839111328125
v -27.393850326538086 14.777785301208496 -470.03839111328125
v -27.393850326538086 40.905406951904297 -470.03839111328125
v -19.871650695800781 14.777785301208496 -472.06353759765625
v -19.871650695800781 40.905406951904297 -472.06353759765625
v -19.871650695800781 14.777785301208496 -472.06353759765625
v -19.871650695800781 40.905406951904297 -472.06353759765625
v -19.61863899230957 14.777785301208496 -483.50350952148438
v -19.61863899230957 40.905406951904297 -483.50350952148438
v -19.61863899230957 14.777785301208496 -483.50350952148438
v -19.61863899230957 40.905406951904297 -483.50350952148438
v -27.393850326538086 14.777785301208496 -487.91070556640625
v -27.393850326538086 40.905406951904297 -487.91070556640625
v -27.393850326538086 14.777785301208496 -487.91070556640625
v -27.393850326538086 40.905406951904297 -487.91070556640625
v -39.307880401611328 14.777785301208496 -488.19091796875
v -39.307880401611328 40.905406951904297 -488.19091796875
v -39.307880401611328 14.777785301208496 -488.19091796875
v -39.307880401611328 40.905406951904297 -488.19091796875
v -39.305068969726563 14.777785301208496 -486.8602294921875
v -39.305068969726563 40.905406951904297 -486.8602294921875
v -39.305068969726563 14.777785301208496 -486.8602294921875
v -39.305068969726563 40.905406951904297 -486.8602294921875
v -45.615333557128906 14.777785301208496 -486.39410400390625
v -45.615333557128906 40.905406951904297 -486.39410400390625
v -45.615333557128906 14.777785301208496 -486.39410400390625
v -45.615333557128906 40.905406951904297 -486.39410400390625
v -45.597587585449219 14.777785301208496 -488.26193237304688
v -45.597587585449219 40.905406951904297 -488.26193237304688
v -45.597587585449219 14.777785301208496 -488.26193237304688
v -45.597587585449219 40.905406951904297 -488.26193237304688
v -58.971138000488281 14.777785301208496 -488.15982055664063
v -58.971138000488281 40.905406951904297 -488.15982055664063
v -58.971138000488281 14.777785301208496 -488.15982055664063
v -58.971138000488281 40.905406951904297 -488.15982055664063
v -65.242729187011719 14.777785301208496 -483.06317138671875
v -65.242729187011719 40.905406951904297 -483.06317138671875
v -65.242729187011719 14.777785301208496 -483.06317138671875
v -65.242729187011719 40.905406951904297 -483.06317138671875
v -64.922103881835938 14.777785301208496 -472.02288818359375
v -64.922103881835938 40.905406951904297 -472.02288818359375
v -64.922103881835938 14.777785301208496 -472.02288818359375
v -64.922103881835938 40.905406951904297 -472.02288818359375
v -57.357917785644531 14.777785301208496 -470.01992797851563
v -57.357917785644531 40.905406951904297 -470.01992797851563
v -57.357917785644531 14.777785301208496 -470.01992797851563
v -57.357917785644531 40.905406951904297 -470.01992797851563
v -57.251689910888672 14.777785301208496 -459.84384155273438
v -57.251689910888672 40.905406951904297 -459.84384155273438
v -57.251689910888672 14.777785301208496 -459.84384155273438
v -57.251689910888672 40.905406951904297 -459.84384155273438
v -65.30267333984375 14.777785301208496 -457.52337646484375
v -65.30267333984375 40.905406951904297 -457.52337646484375
v -65.30267333984375 14.777785301208496 -457.52337646484375
v -65.30267333984375 40.905406951904297 -457.52337646484375
v -65.241378784179688 14.777785301208496 -446.286376953125
v -65.241378784179688 40.905406951904297 -446.286376953125
v -65.241378784179688 14.777785301208496 -446.286376953125
v -65.241378784179688 40.905406951904297 -446.286376953125
v -58.415164947509766 14.777785301208496 -441.5496826171875
v -58.415164947509766 40.905406951904297 -441.5496826171875
v -58.415164947509766 14.777785301208496 -441.5496826171875
v -26.498294830322266 14.777785301208496 -441.5496826171875
v -19.919519424438477 14.777785301208496 -446.0732421875
v -19.638551712036133 14.777785301208496 -458.27655029296875
v -27.301939010620117 14.777785301208496 -459.633544921875
v -27.393850326538086 14.777785301208496 -470.03839111328125
v -19.871650695800781 14.777785301208496 -472.06353759765625
v -19.61863899230957 14.777785301208496 -483.50350952148438
v -27.393850326538086 14.777785301208496 -487.91070556640625
v -39.307880401611328 14.777785301208496 -488.19091796875
v -39.305068969726563 14.777785301208496 -486.8602294921875
v -45.615333557128906 14.777785301208496 -486.39410400390625
v -45.597587585449219 14.777785301208496 -488.26193237304688
v -58.971138000488281 14.777785301208496 -488.15982055664063
v -65.242729187011719 14.777785301208496 -483.06317138671875
v -64.922103881835938 14.777785301208496 -472.02288818359375
v -57.357917785644531 14.777785301208496 -470.01992797851563
v -57.251689910888672 14.777785301208496 -459.84384155273438
v -65.30267333984375 14.777785301208496 -457.52337646484375
v -65.241378784179688 14.777785301208496 -446.286376953125
v -58.415164947509766 40.905406951904297 -441.5496826171875
v -26.498294830322266 40.905406951904297 -441.5496826171875
v -19.919519424438477 40.905406951904297 -446.0732421875
v -19.638551712036133 40.905406951904297 -458.27655029296875
v -27.301939010620117 40.905406951904297 -459.633544921875
v -27.393850326538086 40.905406951904297 -470.03839111328125
v -19.871650695800781 40.905406951904297 -472.06353759765625
v -19.61863899230957 40.905406951904297 -483.50350952148438
v -27.393850326538086 40.905406951904297 -487.91070556640625
v -39.307880401611328 40.905406951904297 -488.19091796875
v -39.305068969726563 40.905406951904297 -486.8602294921875
v -45.615333557128906 40.905406951904297 -486.39410400390625
v -45.597587585449219 40.905406951904297 -488.26193237304688
v -58.971138000488281 40.905406951904297 -488.15982055664063
v -65.242729187011719 40.905406951904297 -483.06317138671875
v -64.922103881835938 40.905406951904297 -472.02288818359375
v -57.357917785644531 40.905406951904297 -470.01992797851563
v -57.251689910888672 40.905406951904297 -459.84384155273438
v -65.30267333984375 40.905406951904297 -457.52337646484375
v -65.241378784179688 40.905406951904297 -446.286376953125
vt 0 0
vt 0 0.61118507385253906
vt 0.16089873015880585 0
vt 0.16089873015880585 0.61118507385253906
vt 0.16089873015880585 0
vt 0.16089873015880585 0.61118507385253906
vt 0.20116394758224487 0
vt 0.20116394758224487 0.61118507385253906
vt 0.20116394758224487 0
vt 0.20116394758224487 0.61118507385253906
vt 0.26270249485969543 0
vt 0.26270249485969543 0.61118507385253906
vt 0.26270249485969543 0
vt 0.26270249485969543 0.61118507385253906
vt 0.30193614959716797 0
vt 0.30193614959716797 0.61118507385253906
vt 0.30193614959716797 0
vt 0.30193614959716797 0.61118507385253906
vt 0.35438999533653259 0
vt 0.35438999533653259 0.61118507385253906
vt 0.35438999533653259 0
vt 0.35438999533653259 0.61118507385253906
vt 0.39366176724433899 0
vt 0.39366176724433899 0.61118507385253906
vt 0.39366176724433899 0
vt 0.39366176724433899 0.61118507385253906
vt 0.45135176181793213 0
vt 0.45135176181793213 0.61118507385253906
vt 0.45135176181793213 0
vt 0.45135176181793213 0.61118507385253906
vt 0.49642148613929749 0
vt 0.49642148613929749 0.61118507385253906
vt 0.49642148613929749 0
vt 0.49642148613929749 0.61118507385253906
vt 0.55650097131729126 0
vt 0.55650097131729126 0.61118507385253906
vt 0.55650097131729126 0
vt 0.55650097131729126 0.61118507385253906
vt 0.56321996450424194 0
vt 0.56321996450424194 0.61118507385253906
vt 0.56321996450424194 0
vt 0.56321996450424194 0.61118507385253906
vt 0.59511727094650269 0
vt 0.59511727094650269 0.61118507385253906
vt 0.59511727094650269 0
vt 0.59511727094650269 0.61118507385253906
vt 0.60453426837921143 0
vt 0.60453426837921143 0.61118507385253906
vt 0.60453426837921143 0
vt 0.60453426837921143 0.61118507385253906
vt 0.67195343971252441 0
vt 0.67195343971252441 0.61118507385253906
vt 0.67195343971252441 0
vt 0.67195343971252441 0.61118507385253906
vt 0.71270120143890381 0
vt 0.71270120143890381 0.61118507385253906
vt 0.71270120143890381 0
vt 0.71270120143890381 0.61118507385253906
vt 0.76838159561157227 0
vt 0.76838159561157227 0.61118507385253906
vt 0.76838159561157227 0
vt 0.76838159561157227 0.61118507385253906
vt 0.80786377191543579 0
vt 0.80786377191543579 0.61118507385253906
vt 0.80786377191543579 0
vt 0.80786377191543579 0.61118507385253906
vt 0.85917401313781738 0
vt 0.85917401313781738 0.61118507385253906
vt 0.85917401313781738 0
vt 0.85917401313781738 0.61118507385253906
vt 0.90143692493438721 0
vt 0.90143692493438721 0.61118507385253906
vt 0.90143692493438721 0
vt 0.90143692493438721 0.61118507385253906
vt 0.95810765027999878 0
vt 0.95810765027999878 0.61118507385253906
vt 0.95810765027999878 0
vt 0.95810765027999878 0.61118507385253906
vt 1 0
vt 1 0.61118507385253906
vt 0.2355218231678009 0.94138073921203613
vt 0.2355218231678009 0.6697380542755127
vt 0.21271412074565887 0.61374646425247192
vt 0.1511853039264679 0.61135512590408325
vt 0.14434348046779633 0.67657780647277832
vt 0.091882549226284027 0.67736005783081055
vt 0.081671707332134247 0.61333906650543213
vt 0.023991778492927551 0.61118566989898682
vt 0.0017707868246361613 0.67736005783081055
vt 0.00035791692789644003 0.77875971794128418
vt 0.007067299447953701 0.77873581647872925
vt 0.0094174407422542572 0.83244210481643677
vt 0 0.83229106664657593
vt 0.0005147537449374795 0.94611263275146484
vt 0.02621188573539257 0.99948984384536743
vt 0.081876762211322784 0.99676096439361572
vt 0.091975577175617218 0.93238258361816406
vt 0.14328305423259735 0.93147850036621094
vt 0.15498284995555878 1
vt 0.21163950860500336 0.99947834014892578
vt 0.2355218231678009 0.66980493068695068
vt 0.2355218231678009 0.94144761562347412
vt 0.21271412074565887 0.99743920564651489
vt 0.1511853039264679 0.99983054399490356
vt 0.14434348046779633 0.9346078634262085
vt 0.091882549226284027 0.93382561206817627
vt 0.081671707332134247 0.99784660339355469
vt 0.023991778492927551 1
vt 0.0017707868246361613 0.93382561206817627
vt 0.00035791692789644003 0.83242595195770264
vt 0.007067299447953701 0.83244985342025757
vt 0.0094174407422542572 0.77874356508255005
vt 0 0.77889460325241089
vt 0.0005147537449374795 0.66507303714752197
vt 0.02621188573539257 0.61169588565826416
vt 0.081876762211322784 0.61442470550537109
vt 0.091975577175617218 0.67880308628082275
vt 0.14328305423259735 0.67970716953277588
vt 0.15498284995555878 0.61118566989898682
vt 0.21163950860500336 0.61170732975006104
vn 0 0 1
vn 0 0 1
vn 0 0 1
vn 0 0 1
vn 0.56658506393432617 0 0.82400327920913696
vn 0.56658506393432617 0 0.82400327920913696
vn 0.56658506393432617 0 0.82400327920913696
vn 0.56658506393432617 0 0.82400327920913696
vn 0.99973505735397339 0 0.023017849773168564
vn 0.99973505735397339 0 0.023017849773168564
vn 0.99973505735397339 0 0.023017849773168564
vn 0.99973505735397339 0 0.023017849773168564
vn 0.17436006665229797 0 -0.98468196392059326
vn 0.17436006665229797 0 -0.98468196392059326
vn 0.17436006665229797 0 -0.98468196392059326
vn 0.17436006665229797 0 -0.98468196392059326
vn 0.99996095895767212 0 -0.0088332816958427429
vn 0.99996095895767212 0 -0.0088332816958427429
vn 0.99996095895767212 0 -0.0088332816958427429
vn 0.99996095895767212 0 -0.0088332816958427429
vn 0.25996881723403931 0 0.96561700105667114
vn 0.25996881723403931 0 0.96561700105667114
vn 0.25996881723403931 0 0.96561700105667114
vn 0.25996881723403931 0 0.96561700105667114
vn 0.99975550174713135 0 0.022111155092716217
vn 0.99975550174713135 0 0.022111155092716217
vn 0.99975550174713135 0 0.022111155092716217
vn 0.99975550174713135 0 0.022111155092716217
vn 0.49311840534210205 0 -0.86996221542358398
vn 0.49311840534210205 0 -0.86996221542358398
vn 0.49311840534210205 0 -0.86996221542358398
vn 0.49311840534210205 0 -0.86996221542358398
vn 0.023513806983828545 0 -0.99972349405288696
vn 0.023513806983828545 0 -0.99972349405288696
vn 0.023513806983828545 0 -0.99972349405288696
vn 0.023513806983828545 0 -0.99972349405288696
vn -0.99999779462814331 0 0.0021135346032679081
vn -0.99999779462814331 0 0.0021135346032679081
vn -0.99999779462814331 0 0.0021135346032679081
vn -0.99999779462814331 0 0.0021135346032679081
vn -0.073665551841259003 0 -0.99728298187255859
vn -0.073665551841259003 0 -0.99728298187255859
vn -0.073665551841259003 0 -0.99728298187255859
vn -0.073665551841259003 0 -0.99728298187255859
vn 0.99995487928390503 0 0.0095010092481970787
vn 0.99995487928390503 0 0.0095010092481970787
vn 0.99995487928390503 0 0.0095010092481970787
vn 0.99995487928390503 0 0.0095010092481970787
vn -0.0076337829232215881 0 -0.99997085332870483
vn -0.0076337829232215881 0 -0.99997085332870483
vn -0.0076337829232215881 0 -0.99997085332870483
vn -0.0076337829232215881 0 -0.99997085332870483
vn -0.63066518306732178 0 -0.77605503797531128
vn -0.63066518306732178 0 -0.77605503797531128
vn -0.63066518306732178 0 -0.77605503797531128
vn -0.63066518306732178 0 -0.77605503797531128
vn -0.99957859516143799 0 0.029029091820120811
vn -0.99957859516143799 0 0.029029091820120811
vn -0.99957859516143799 0 0.029029091820120811
vn -0.99957859516143799 0 0.029029091820120811
vn -0.25597187876701355 0 0.96668422222137451
vn -0.25597187876701355 0 0.96668422222137451
vn -0.25597187876701355 0 0.96668422222137451
vn -0.25597187876701355 0 0.96668422222137451
vn -0.99994552135467529 0 0.010438438504934311
vn -0.99994552135467529 0 0.010438438504934311
vn -0.99994552135467529 0 0.010438438504934311
vn -0.99994552135467529 0 0.010438438504934311
vn -0.2769491970539093 0 -0.96088457107543945
vn -0.2769491970539093 0 -0.96088457107543945
vn -0.2769491970539093 0 -0.96088457107543945
vn -0.2769491970539093 0 -0.96088457107543945
vn -0.99998509883880615 0 0.0054546203464269638
vn -0.99998509883880615 0 0.0054546203464269638
vn -0.99998509883880615 0 0.0054546203464269638
vn -0.99998509883880615 0 0.0054546203464269638
vn -0.57009291648864746 0 0.82158023118972778
vn -0.57009291648864746 0 0.82158023118972778
vn -0.57009291648864746 0 0.82158023118972778
vn -0.57009291648864746 0 0.82158023118972778
vn 0 -1 0
vn 0 -1 0
vn 0 -1 0
vn 0 -1 0
vn 0 -1 0
vn 0 -1 0
vn 0 -1 0
vn 0 -1 0
vn 0 -1 0
vn 0 -1 0
vn 0 -1 0
vn 0 -1 0
vn 0 -1 0
vn 0 -1 0
vn 0 -1 0
vn 0 -1 0
vn 0 -1 0
vn 0 -1 0
vn 0 -1 0
vn 0 -1 0
vn 0 1 0
vn 0 1 0
vn 0 1 0
vn 0 1 0
vn 0 1 0
vn 0 1 0
vn 0 1 0
vn 0 1 0
vn 0 1 0
vn 0 1 0
vn 0 1 0
vn 0 1 0
vn 0 1 0
vn 0 1 0
vn 0 1 0
vn 0 1 0
vn 0 1 0
vn 0 1 0
vn 0 1 0
vn 0 1 0
f 1/1/1 3/3/3 4/4/4 2/2/2
f 5/5/5 7/7/7 8/8/8 6/6/6
f 9/9/9 11/11/11 12/12/12 10/10/10
f 13/13/13 15/15/15 16/16/16 14/14/14
f 17/17/17 19/19/19 20/20/20 18/18/18
f 21/21/21 23/23/23 24/24/24 22/22/22
f 25/25/25 27/27/27 28/28/28 26/26/26
f 29/29/29 31/31/31 32/32/32 30/30/30
f 33/33/33 35/35/35 36/36/36 34/34/34
f 37/37/37 39/39/39 40/40/40 38/38/38
f 41/41/41 43/43/43 44/44/44 42/42/42
f 45/45/45 47/47/47 48/48/48 46/46/46
f 49/49/49 51/51/51 52/52/52 50/50/50
f 53/53/53 55/55/55 56/56/56 54/54/54
f 57/57/57 59/59/59 60/60/60 58/58/58
f 61/61/61 63/63/63 64/64/64 62/62/62
f 65/65/65 67/67/67 68/68/68 66/66/66
f 69/69/69 71/71/71 72/72/72 70/70/70
f 73/73/73 75/75/75 76/76/76 74/74/74
f 77/77/77 79/79/79 80/80/80 78/78/78
f 98/98/98 100/100/100 99/99/99
f 98/98/98 97/97/97 86/86/86
f 86/86/86 97/97/97 92/92/92
f 81/81/81 100/100/100 98/98/98
f 95/95/95 97/97/97 96/96/96
f 93/93/93 92/92/92 94/94/94
f 94/94/94 97/97/97 95/95/95
f 94/94/94 92/92/92 97/97/97
f 82/82/82 81/81/81 98/98/98
f 92/92/92 91/91/91 86/86/86
f 85/85/85 84/84/84 83/83/83
f 82/82/82 85/85/85 83/83/83
f 86/86/86 85/85/85 98/98/98
f 89/89/89 91/91/91 90/90/90
f 89/89/89 88/88/88 86/86/86
f 86/86/86 91/91/91 89/89/89
f 86/86/86 88/88/88 87/87/87
f 82/82/82 98/98/98 85/85/85
f 118/118/118 119/119/119 120/120/120
f 118/118/118 106/106/106 117/117/117
f 106/106/106 112/112/112 117/117/117
f 101/101/101 118/118/118 120/120/120
f 115/115/115 116/116/116 117/117/117
f 113/113/113 114/114/114 112/112/112
f 114/114/114 115/115/115 117/117/117
f 114/114/114 117/117/117 112/112/112
f 102/102/102 118/118/118 101/101/101
f 112/112/112 106/106/106 111/111/111
f 105/105/105 103/103/103 104/104/104
f 102/102/102 103/103/103 105/105/105
f 106/106/106 118/118/118 105/105/105
f 109/109/109 110/110/110 111/111/111
f 109/109/109 106/106/106 108/108/108
f 106/106/106 109/109/109 111/111/111
f 106/106/106 107/107/107 108/108/108
f 102/102/102 105/105/105 118/118/118
