# Rhino

g object_1
v -22.407325744628906 14.785994529724121 -420.34283447265625
v -22.407325744628906 71.672164916992188 -420.34283447265625
v -25.483497619628906 14.785994529724121 -423.85845947265625
v -25.483497619628906 71.672164916992188 -423.85845947265625
v -25.483497619628906 14.785994529724121 -423.85845947265625
v -25.483497619628906 71.672164916992188 -423.85845947265625
v -79.096778869628906 14.785994529724121 -423.85845947265625
v -79.096778869628906 71.672164916992188 -423.85845947265625
v -79.096778869628906 14.785994529724121 -423.85845947265625
v -79.096778869628906 71.672164916992188 -423.85845947265625
v -83.051856994628906 14.785994529724121 -420.04986572265625
v -83.051856994628906 71.672164916992188 -420.04986572265625
v -83.051856994628906 14.785994529724121 -420.04986572265625
v -83.051856994628906 71.672164916992188 -420.04986572265625
v -82.905372619628906 14.785994529724121 -387.23736572265625
v -82.905372619628906 71.672164916992188 -387.23736572265625
v -82.905372619628906 14.785994529724121 -387.23736572265625
v -82.905372619628906 71.672164916992188 -387.23736572265625
v -79.096778869628906 14.785994529724121 -383.28228759765625
v -79.096778869628906 71.672164916992188 -383.28228759765625
v -79.096778869628906 14.785994529724121 -383.28228759765625
v -79.096778869628906 71.672164916992188 -383.28228759765625
v -25.337013244628906 14.785994529724121 -383.28228759765625
v -25.337013244628906 71.672164916992188 -383.28228759765625
v -25.337013244628906 14.785994529724121 -383.28228759765625
v -25.337013244628906 71.672164916992188 -383.28228759765625
v -21.967872619628906 14.785994529724121 -386.79791259765625
v -21.967872619628906 71.672164916992188 -386.79791259765625
v -21.967872619628906 14.785994529724121 -386.79791259765625
v -21.967872619628906 71.672164916992188 -386.79791259765625
v -22.407325744628906 14.785994529724121 -420.34283447265625
v -22.407325744628906 71.672164916992188 -420.34283447265625
v -22.407325744628906 14.785994529724121 -420.34283447265625
v -25.483497619628906 14.785994529724121 -423.85845947265625
v -79.096778869628906 14.785994529724121 -423.85845947265625
v -83.051856994628906 14.785994529724121 -420.04986572265625
v -82.905372619628906 14.785994529724121 -387.23736572265625
v -79.096778869628906 14.785994529724121 -383.28228759765625
v -25.337013244628906 14.785994529724121 -383.28228759765625
v -21.967872619628906 14.785994529724121 -386.79791259765625
v -22.407325744628906 71.672164916992188 -420.34283447265625
v -25.483497619628906 71.672164916992188 -423.85845947265625
v -79.096778869628906 71.672164916992188 -423.85845947265625
v -83.051856994628906 71.672164916992188 -420.04986572265625
v -82.905372619628906 71.672164916992188 -387.23736572265625
v -79.096778869628906 71.672164916992188 -383.28228759765625
v -25.337013244628906 71.672164916992188 -383.28228759765625
v -21.967872619628906 71.672164916992188 -386.79791259765625
vt 0 0
vt 0 0.7060512900352478
vt 0.02404310368001461 0
vt 0.02404310368001461 0.7060512900352478
vt 0.02404310368001461 0
vt 0.02404310368001461 0.7060512900352478
vt 0.30004677176475525 0
vt 0.30004677176475525 0.7060512900352478
vt 0.30004677176475525 0
vt 0.30004677176475525 0.7060512900352478
vt 0.32830652594566345 0
vt 0.32830652594566345 0.7060512900352478
vt 0.32830652594566345 0
vt 0.32830652594566345 0.7060512900352478
vt 0.49718815088272095 0
vt 0.49718815088272095 0.7060512900352478
vt 0.49718815088272095 0
vt 0.49718815088272095 0.7060512900352478
vt 0.52544790506362915 0
vt 0.52544790506362915 0.7060512900352478
vt 0.52544790506362915 0
vt 0.52544790506362915 0.7060512900352478
vt 0.80214059352874756 0
vt 0.80214059352874756 0.7060512900352478
vt 0.80214059352874756 0
vt 0.80214059352874756 0.7060512900352478
vt 0.82720232009887695 0
vt 0.82720232009887695 0.7060512900352478
vt 0.82720232009887695 0
vt 0.82720232009887695 0.7060512900352478
vt 1 0
vt 1 0.7060512900352478
vt 0.31218883395195007 0.73152041435241699
vt 0.29635316133499146 0.70605200529098511
vt 0.02036014012992382 0.70605200529098511
vt 0 0.7336428165435791
vt 0.00075407890835776925 0.97134804725646973
vt 0.02036014012992382 1
vt 0.29710724949836731 1
vt 0.31445106863975525 0.97453159093856812
vt 0.31218883395195007 0.97453159093856812
vt 0.29635316133499146 1
vt 0.02036014012992382 1
vt 0 0.97240918874740601
vt 0.00075407890835776925 0.73470395803451538
vt 0.02036014012992382 0.70605200529098511
vt 0.29710724949836731 0.70605200529098511
vt 0.31445106863975525 0.73152041435241699
vn 0.75257670879364014 0 -0.65850460529327393
vn 0.75257670879364014 0 -0.65850460529327393
vn 0.75257670879364014 0 -0.65850460529327393
vn 0.75257670879364014 0 -0.65850460529327393
vn 0 0 -1
vn 0 0 -1
vn 0 0 -1
vn 0 0 -1
vn -0.69364172220230103 0 -0.72032022476196289
vn -0.69364172220230103 0 -0.72032022476196289
vn -0.69364172220230103 0 -0.72032022476196289
vn -0.69364172220230103 0 -0.72032022476196289
vn -0.99999004602432251 0 0.0044642388820648193
vn -0.99999004602432251 0 0.0044642388820648193
vn -0.99999004602432251 0 0.0044642388820648193
vn -0.99999004602432251 0 0.0044642388820648193
vn -0.72032022476196289 0 0.69364172220230103
vn -0.72032022476196289 0 0.69364172220230103
vn -0.72032022476196289 0 0.69364172220230103
vn -0.72032022476196289 0 0.69364172220230103
vn 0 0 1
vn 0 0 1
vn 0 0 1
vn 0 0 1
vn 0.72198820114135742 0 0.69190537929534912
vn 0.72198820114135742 0 0.69190537929534912
vn 0.72198820114135742 0 0.69190537929534912
vn 0.72198820114135742 0 0.69190537929534912
vn 0.99991422891616821 0 -0.013099310919642448
vn 0.99991422891616821 0 -0.013099310919642448
vn 0.99991422891616821 0 -0.013099310919642448
vn 0.99991422891616821 0 -0.013099310919642448
vn 0 -1 0
vn 0 -1 0
vn 0 -1 0
vn 0 -1 0
vn 0 -1 0
vn 0 -1 0
vn 0 -1 0
vn 0 -1 0
vn 0 1 0
vn 0 1 0
vn 0 1 0
vn 0 1 0
vn 0 1 0
vn 0 1 0
vn 0 1 0
vn 0 1 0
f 1/1/1 3/3/3 4/4/4 2/2/2
f 5/5/5 7/7/7 8/8/8 6/6/6
f 9/9/9 11/11/11 12/12/12 10/10/10
f 13/13/13 15/15/15 16/16/16 14/14/14
f 17/17/17 19/19/19 20/20/20 18/18/18
f 21/21/21 23/23/23 24/24/24 22/22/22
f 25/25/25 27/27/27 28/28/28 26/26/26
f 29/29/29 31/31/31 32/32/32 30/30/30
f 35/35/35 38/38/38 37/37/37
f 37/37/37 36/36/36 35/35/35
f 35/35/35 34/34/34 38/38/38
f 33/33/33 40/40/40 39/39/39
f 39/39/39 34/34/34 33/33/33
f 38/38/38 34/34/34 39/39/39
f 43/43/43 45/45/45 46/46/46
f 45/45/45 43/43/43 44/44/44
f 43/43/43 46/46/46 42/42/42
f 41/41/41 47/47/47 48/48/48
f 47/47/47 41/41/41 42/42/42
f 46/46/46 47/47/47 42/42/42
